<svg width="25" height="25" viewBox="0 0 25 25" fill="none" xmlns="http://www.w3.org/2000/svg">
<path d="M8.71096 0.121948C5.46867 0.121948 2.83276 2.75786 2.83276 6.00015C2.83276 9.18056 5.32017 11.7546 8.56246 11.866C8.66146 11.8536 8.76047 11.8536 8.83472 11.866H8.89659H8.92134C12.0894 11.7546 14.5768 9.18056 14.5892 6.00015C14.5892 2.75786 11.9533 0.121948 8.71096 0.121948Z" fill="#2B4759"/>
<path d="M14.9986 15.1564C11.546 12.8546 5.91533 12.8546 2.43791 15.1564C0.866261 16.2083 0 17.6314 0 19.1536C0 20.6757 0.866261 22.0865 2.42553 23.126C4.15805 24.2893 6.43508 24.8709 8.71211 24.8709C10.9891 24.8709 13.2661 24.2893 14.9986 23.126C16.5579 22.0741 17.4242 20.6633 17.4242 19.1288C17.4118 17.6067 16.5579 16.1959 14.9986 15.1564Z" fill="#2B4759"/>
<path d="M22.3104 6.72788C22.5084 9.12866 20.8006 11.2324 18.437 11.517C18.4246 11.517 18.4246 11.517 18.4122 11.517H18.3751C18.3009 11.517 18.2266 11.517 18.1647 11.5418C16.9643 11.6036 15.8629 11.22 15.0338 10.5146C16.3085 9.37617 17.0386 7.6684 16.8901 5.81212C16.8035 4.80973 16.457 3.89397 15.9372 3.11434C16.4075 2.87921 16.952 2.73071 17.5088 2.68121C19.9344 2.47083 22.1 4.2776 22.3104 6.72788Z" fill="#2B4759"/>
<path d="M24.784 18.1777C24.685 19.378 23.9178 20.4176 22.6308 21.1229C21.3932 21.8036 19.834 22.1253 18.2871 22.0882C19.1781 21.2838 19.6978 20.2814 19.7968 19.2172C19.9206 17.6826 19.1905 16.21 17.7302 15.0344C16.9011 14.3785 15.9358 13.8587 14.8839 13.4751C17.6188 12.6831 21.0591 13.2152 23.1753 14.923C24.3138 15.8387 24.8954 16.9896 24.784 18.1777Z" fill="#2B4759"/>
</svg>
