<svg width="25" height="25" viewBox="0 0 25 25" fill="none" xmlns="http://www.w3.org/2000/svg">
<path d="M24.0359 20.5383L21.9782 21.0247C21.5167 21.1369 21.1551 21.4861 21.0553 21.9475L20.6188 23.7808C20.3819 24.7784 19.1098 25.0902 18.4489 24.3045L14.7201 20.0145C14.4208 19.6653 14.5829 19.1166 15.0318 19.0044C17.2392 18.4681 19.2221 17.2335 20.6812 15.4751C20.9181 15.1883 21.3421 15.1508 21.604 15.4127L24.3726 18.1813C25.3204 19.1291 24.9837 20.3138 24.0359 20.5383Z" fill="#2B4759"/>
<path d="M0.901181 20.5383L2.95889 21.0247C3.42032 21.1369 3.78197 21.4861 3.88174 21.9475L4.31822 23.7808C4.55517 24.7784 5.82721 25.0902 6.48817 24.3045L10.217 20.0145C10.5163 19.6653 10.3542 19.1166 9.90521 19.0044C7.69785 18.4681 5.71497 17.2335 4.25587 15.4751C4.01892 15.1883 3.59491 15.1508 3.33302 15.4127L0.564465 18.1813C-0.383328 19.1291 -0.0466118 20.3138 0.901181 20.5383Z" fill="#2B4759"/>
<path d="M12.5001 -0.00134277C7.6738 -0.00134277 3.77039 3.90207 3.77039 8.72833C3.77039 10.5366 4.30664 12.1953 5.22949 13.5795C6.57635 15.5749 8.70888 16.9841 11.1906 17.3458C11.6146 17.4206 12.0511 17.458 12.5001 17.458C12.949 17.458 13.3855 17.4206 13.8095 17.3458C16.2912 16.9841 18.4238 15.5749 19.7706 13.5795C20.6935 12.1953 21.2297 10.5366 21.2297 8.72833C21.2297 3.90207 17.3263 -0.00134277 12.5001 -0.00134277ZM16.3162 8.45397L15.2811 9.48906C15.1065 9.66365 15.0067 10.0004 15.0691 10.2498L15.3684 11.5343C15.6053 12.5444 15.0691 12.9435 14.1712 12.4073L12.9241 11.6715C12.6996 11.5343 12.3255 11.5343 12.101 11.6715L10.8539 12.4073C9.95598 12.931 9.41973 12.5444 9.65668 11.5343L9.95598 10.2498C10.0059 10.0128 9.91857 9.66365 9.74397 9.48906L8.68394 8.45397C8.07287 7.84289 8.2724 7.23181 9.12043 7.09463L10.4548 6.87016C10.6793 6.83274 10.9412 6.63321 11.041 6.43367L11.7767 4.9621C12.1758 4.16396 12.8243 4.16396 13.2234 4.9621L13.9592 6.43367C14.0589 6.63321 14.3208 6.83274 14.5578 6.87016L15.8922 7.09463C16.7277 7.23181 16.9272 7.84289 16.3162 8.45397Z" fill="#2B4759"/>
</svg>
