<svg width="25" height="25" viewBox="0 0 25 25" fill="none" xmlns="http://www.w3.org/2000/svg">
<g clip-path="url(#clip0_136_77)">
<path d="M24.6234 12.3046L13.1306 0.820272C13.0479 0.737359 12.9496 0.67158 12.8414 0.626699C12.7332 0.581818 12.6172 0.558716 12.5001 0.558716C12.3829 0.558716 12.2669 0.581818 12.1587 0.626699C12.0505 0.67158 11.9522 0.737359 11.8695 0.820272L0.376726 12.3046C0.041905 12.6395 -0.147827 13.0943 -0.147827 13.5686C-0.147827 14.5535 0.652954 15.3543 1.63789 15.3543H2.84883V23.5491C2.84883 24.0429 3.24782 24.4419 3.74168 24.4419H10.7143V18.1919H13.8393V24.4419H21.2584C21.7523 24.4419 22.1513 24.0429 22.1513 23.5491V15.3543H23.3622C23.8365 15.3543 24.2913 15.1674 24.6262 14.8298C25.3209 14.1322 25.3209 13.0022 24.6234 12.3046Z" fill="#2B4759"/>
</g>
<defs>
<clipPath id="clip0_136_77">
<rect width="25" height="25" fill="white"/>
</clipPath>
</defs>
</svg>
