<svg width="605" height="225" viewBox="0 0 605 225" fill="none" xmlns="http://www.w3.org/2000/svg">
<path d="M2.984 38V4.4H9.416L29.24 28.592H26.12V4.4H33.8V38H27.416L7.544 13.808H10.664V38H2.984ZM53.5096 38.384C50.7576 38.384 48.3096 37.808 46.1656 36.656C44.0536 35.504 42.3736 33.936 41.1256 31.952C39.9096 29.936 39.3016 27.648 39.3016 25.088C39.3016 22.496 39.9096 20.208 41.1256 18.224C42.3736 16.208 44.0536 14.64 46.1656 13.52C48.3096 12.368 50.7576 11.792 53.5096 11.792C56.2296 11.792 58.6616 12.368 60.8056 13.52C62.9496 14.64 64.6296 16.192 65.8456 18.176C67.0616 20.16 67.6696 22.464 67.6696 25.088C67.6696 27.648 67.0616 29.936 65.8456 31.952C64.6296 33.936 62.9496 35.504 60.8056 36.656C58.6616 37.808 56.2296 38.384 53.5096 38.384ZM53.5096 32.24C54.7576 32.24 55.8776 31.952 56.8696 31.376C57.8616 30.8 58.6456 29.984 59.2216 28.928C59.7976 27.84 60.0856 26.56 60.0856 25.088C60.0856 23.584 59.7976 22.304 59.2216 21.248C58.6456 20.192 57.8616 19.376 56.8696 18.8C55.8776 18.224 54.7576 17.936 53.5096 17.936C52.2616 17.936 51.1416 18.224 50.1496 18.8C49.1576 19.376 48.3576 20.192 47.7496 21.248C47.1736 22.304 46.8856 23.584 46.8856 25.088C46.8856 26.56 47.1736 27.84 47.7496 28.928C48.3576 29.984 49.1576 30.8 50.1496 31.376C51.1416 31.952 52.2616 32.24 53.5096 32.24ZM81.3628 38.384C79.1548 38.384 77.0268 38.128 74.9788 37.616C72.9628 37.072 71.3628 36.4 70.1788 35.6L72.6748 30.224C73.8588 30.96 75.2508 31.568 76.8508 32.048C78.4828 32.496 80.0828 32.72 81.6508 32.72C83.3788 32.72 84.5948 32.512 85.2988 32.096C86.0348 31.68 86.4028 31.104 86.4028 30.368C86.4028 29.76 86.1148 29.312 85.5388 29.024C84.9948 28.704 84.2588 28.464 83.3307 28.304C82.4028 28.144 81.3788 27.984 80.2588 27.824C79.1708 27.664 78.0668 27.456 76.9468 27.2C75.8268 26.912 74.8028 26.496 73.8748 25.952C72.9468 25.408 72.1948 24.672 71.6188 23.744C71.0748 22.816 70.8027 21.616 70.8027 20.144C70.8027 18.512 71.2668 17.072 72.1948 15.824C73.1548 14.576 74.5308 13.6 76.3228 12.896C78.1148 12.16 80.2588 11.792 82.7548 11.792C84.5148 11.792 86.3068 11.984 88.1308 12.368C89.9548 12.752 91.4748 13.312 92.6908 14.048L90.1948 19.376C88.9468 18.64 87.6828 18.144 86.4028 17.888C85.1548 17.6 83.9388 17.456 82.7548 17.456C81.0908 17.456 79.8748 17.68 79.1068 18.128C78.3388 18.576 77.9548 19.152 77.9548 19.856C77.9548 20.496 78.2268 20.976 78.7708 21.296C79.3468 21.616 80.0988 21.872 81.0268 22.064C81.9548 22.256 82.9628 22.432 84.0508 22.592C85.1708 22.72 86.2908 22.928 87.4108 23.216C88.5308 23.504 89.5388 23.92 90.4348 24.464C91.3628 24.976 92.1148 25.696 92.6908 26.624C93.2668 27.52 93.5548 28.704 93.5548 30.176C93.5548 31.776 93.0748 33.2 92.1148 34.448C91.1548 35.664 89.7628 36.624 87.9388 37.328C86.1468 38.032 83.9548 38.384 81.3628 38.384ZM106.863 38.384C104.655 38.384 102.527 38.128 100.479 37.616C98.4628 37.072 96.8628 36.4 95.6788 35.6L98.1748 30.224C99.3588 30.96 100.751 31.568 102.351 32.048C103.983 32.496 105.583 32.72 107.151 32.72C108.879 32.72 110.095 32.512 110.799 32.096C111.535 31.68 111.903 31.104 111.903 30.368C111.903 29.76 111.615 29.312 111.039 29.024C110.495 28.704 109.759 28.464 108.831 28.304C107.903 28.144 106.879 27.984 105.759 27.824C104.671 27.664 103.567 27.456 102.447 27.2C101.327 26.912 100.303 26.496 99.3748 25.952C98.4468 25.408 97.6948 24.672 97.1188 23.744C96.5748 22.816 96.3027 21.616 96.3027 20.144C96.3027 18.512 96.7668 17.072 97.6948 15.824C98.6548 14.576 100.031 13.6 101.823 12.896C103.615 12.16 105.759 11.792 108.255 11.792C110.015 11.792 111.807 11.984 113.631 12.368C115.455 12.752 116.975 13.312 118.191 14.048L115.695 19.376C114.447 18.64 113.183 18.144 111.903 17.888C110.655 17.6 109.439 17.456 108.255 17.456C106.591 17.456 105.375 17.68 104.607 18.128C103.839 18.576 103.455 19.152 103.455 19.856C103.455 20.496 103.727 20.976 104.271 21.296C104.847 21.616 105.599 21.872 106.527 22.064C107.455 22.256 108.463 22.432 109.551 22.592C110.671 22.72 111.791 22.928 112.911 23.216C114.031 23.504 115.039 23.92 115.935 24.464C116.863 24.976 117.615 25.696 118.191 26.624C118.767 27.52 119.055 28.704 119.055 30.176C119.055 31.776 118.575 33.2 117.615 34.448C116.655 35.664 115.263 36.624 113.439 37.328C111.647 38.032 109.455 38.384 106.863 38.384ZM139.515 38V32.96L139.035 31.856V22.832C139.035 21.232 138.539 19.984 137.547 19.088C136.587 18.192 135.099 17.744 133.083 17.744C131.707 17.744 130.347 17.968 129.003 18.416C127.691 18.832 126.571 19.408 125.643 20.144L122.955 14.912C124.363 13.92 126.059 13.152 128.043 12.608C130.027 12.064 132.043 11.792 134.091 11.792C138.027 11.792 141.083 12.72 143.259 14.576C145.435 16.432 146.523 19.328 146.523 23.264V38H139.515ZM131.643 38.384C129.627 38.384 127.899 38.048 126.459 37.376C125.019 36.672 123.915 35.728 123.147 34.544C122.379 33.36 121.995 32.032 121.995 30.56C121.995 29.024 122.363 27.68 123.099 26.528C123.867 25.376 125.067 24.48 126.699 23.84C128.331 23.168 130.459 22.832 133.083 22.832H139.947V27.2H133.899C132.139 27.2 130.923 27.488 130.251 28.064C129.611 28.64 129.291 29.36 129.291 30.224C129.291 31.184 129.659 31.952 130.395 32.528C131.163 33.072 132.203 33.344 133.515 33.344C134.763 33.344 135.883 33.056 136.875 32.48C137.867 31.872 138.587 30.992 139.035 29.84L140.187 33.296C139.643 34.96 138.651 36.224 137.211 37.088C135.771 37.952 133.915 38.384 131.643 38.384ZM199.966 11.792C202.014 11.792 203.822 12.208 205.39 13.04C206.99 13.84 208.238 15.088 209.134 16.784C210.062 18.448 210.526 20.592 210.526 23.216V38H203.038V24.368C203.038 22.288 202.606 20.752 201.742 19.76C200.878 18.768 199.662 18.272 198.094 18.272C197.006 18.272 196.03 18.528 195.166 19.04C194.302 19.52 193.63 20.256 193.15 21.248C192.67 22.24 192.43 23.504 192.43 25.04V38H184.942V24.368C184.942 22.288 184.51 20.752 183.646 19.76C182.814 18.768 181.614 18.272 180.046 18.272C178.958 18.272 177.982 18.528 177.118 19.04C176.254 19.52 175.582 20.256 175.102 21.248C174.622 22.24 174.382 23.504 174.382 25.04V38H166.894V12.176H174.046V19.232L172.702 17.168C173.598 15.408 174.862 14.08 176.494 13.184C178.158 12.256 180.046 11.792 182.158 11.792C184.526 11.792 186.59 12.4 188.35 13.616C190.142 14.8 191.326 16.624 191.902 19.088L189.262 18.368C190.126 16.352 191.502 14.752 193.39 13.568C195.31 12.384 197.502 11.792 199.966 11.792ZM217.237 38V12.176H224.725V38H217.237ZM220.981 8.576C219.605 8.576 218.485 8.176 217.621 7.376C216.757 6.576 216.325 5.584 216.325 4.4C216.325 3.216 216.757 2.224 217.621 1.424C218.485 0.623998 219.605 0.223997 220.981 0.223997C222.357 0.223997 223.477 0.607998 224.341 1.376C225.205 2.112 225.637 3.072 225.637 4.256C225.637 5.504 225.205 6.544 224.341 7.376C223.509 8.176 222.389 8.576 220.981 8.576ZM240.363 38.384C238.155 38.384 236.027 38.128 233.979 37.616C231.963 37.072 230.363 36.4 229.179 35.6L231.675 30.224C232.859 30.96 234.251 31.568 235.851 32.048C237.483 32.496 239.083 32.72 240.651 32.72C242.379 32.72 243.595 32.512 244.299 32.096C245.035 31.68 245.403 31.104 245.403 30.368C245.403 29.76 245.115 29.312 244.539 29.024C243.995 28.704 243.259 28.464 242.331 28.304C241.403 28.144 240.379 27.984 239.259 27.824C238.171 27.664 237.067 27.456 235.947 27.2C234.827 26.912 233.803 26.496 232.875 25.952C231.947 25.408 231.195 24.672 230.619 23.744C230.075 22.816 229.803 21.616 229.803 20.144C229.803 18.512 230.267 17.072 231.195 15.824C232.155 14.576 233.531 13.6 235.323 12.896C237.115 12.16 239.259 11.792 241.755 11.792C243.515 11.792 245.307 11.984 247.131 12.368C248.955 12.752 250.475 13.312 251.691 14.048L249.195 19.376C247.947 18.64 246.683 18.144 245.403 17.888C244.155 17.6 242.939 17.456 241.755 17.456C240.091 17.456 238.875 17.68 238.107 18.128C237.339 18.576 236.955 19.152 236.955 19.856C236.955 20.496 237.227 20.976 237.771 21.296C238.347 21.616 239.099 21.872 240.027 22.064C240.955 22.256 241.963 22.432 243.051 22.592C244.171 22.72 245.291 22.928 246.411 23.216C247.531 23.504 248.539 23.92 249.435 24.464C250.363 24.976 251.115 25.696 251.691 26.624C252.267 27.52 252.555 28.704 252.555 30.176C252.555 31.776 252.075 33.2 251.115 34.448C250.155 35.664 248.763 36.624 246.939 37.328C245.147 38.032 242.955 38.384 240.363 38.384ZM265.863 38.384C263.655 38.384 261.527 38.128 259.479 37.616C257.463 37.072 255.863 36.4 254.679 35.6L257.175 30.224C258.359 30.96 259.751 31.568 261.351 32.048C262.983 32.496 264.583 32.72 266.151 32.72C267.879 32.72 269.095 32.512 269.799 32.096C270.535 31.68 270.903 31.104 270.903 30.368C270.903 29.76 270.615 29.312 270.039 29.024C269.495 28.704 268.759 28.464 267.831 28.304C266.903 28.144 265.879 27.984 264.759 27.824C263.671 27.664 262.567 27.456 261.447 27.2C260.327 26.912 259.303 26.496 258.375 25.952C257.447 25.408 256.695 24.672 256.119 23.744C255.575 22.816 255.303 21.616 255.303 20.144C255.303 18.512 255.767 17.072 256.695 15.824C257.655 14.576 259.031 13.6 260.823 12.896C262.615 12.16 264.759 11.792 267.255 11.792C269.015 11.792 270.807 11.984 272.631 12.368C274.455 12.752 275.975 13.312 277.191 14.048L274.695 19.376C273.447 18.64 272.183 18.144 270.903 17.888C269.655 17.6 268.439 17.456 267.255 17.456C265.591 17.456 264.375 17.68 263.607 18.128C262.839 18.576 262.455 19.152 262.455 19.856C262.455 20.496 262.727 20.976 263.271 21.296C263.847 21.616 264.599 21.872 265.527 22.064C266.455 22.256 267.463 22.432 268.551 22.592C269.671 22.72 270.791 22.928 271.911 23.216C273.031 23.504 274.039 23.92 274.935 24.464C275.863 24.976 276.615 25.696 277.191 26.624C277.767 27.52 278.055 28.704 278.055 30.176C278.055 31.776 277.575 33.2 276.615 34.448C275.655 35.664 274.263 36.624 272.439 37.328C270.647 38.032 268.455 38.384 265.863 38.384ZM298.515 38V32.96L298.035 31.856V22.832C298.035 21.232 297.539 19.984 296.547 19.088C295.587 18.192 294.099 17.744 292.083 17.744C290.707 17.744 289.347 17.968 288.003 18.416C286.691 18.832 285.571 19.408 284.643 20.144L281.955 14.912C283.363 13.92 285.059 13.152 287.043 12.608C289.027 12.064 291.043 11.792 293.091 11.792C297.027 11.792 300.083 12.72 302.259 14.576C304.435 16.432 305.523 19.328 305.523 23.264V38H298.515ZM290.643 38.384C288.627 38.384 286.899 38.048 285.459 37.376C284.019 36.672 282.915 35.728 282.147 34.544C281.379 33.36 280.995 32.032 280.995 30.56C280.995 29.024 281.363 27.68 282.099 26.528C282.867 25.376 284.067 24.48 285.699 23.84C287.331 23.168 289.459 22.832 292.083 22.832H298.947V27.2H292.899C291.139 27.2 289.923 27.488 289.251 28.064C288.611 28.64 288.291 29.36 288.291 30.224C288.291 31.184 288.659 31.952 289.395 32.528C290.163 33.072 291.203 33.344 292.515 33.344C293.763 33.344 294.883 33.056 295.875 32.48C296.867 31.872 297.587 30.992 298.035 29.84L299.187 33.296C298.643 34.96 297.651 36.224 296.211 37.088C294.771 37.952 292.915 38.384 290.643 38.384ZM297.459 9.008C296.627 9.008 295.891 8.864 295.251 8.576C294.611 8.256 294.035 7.904 293.523 7.52C293.011 7.104 292.531 6.752 292.083 6.464C291.635 6.144 291.187 5.984 290.739 5.984C290.099 5.984 289.571 6.224 289.155 6.704C288.739 7.152 288.499 7.808 288.435 8.672H284.643C284.707 6.528 285.235 4.832 286.227 3.584C287.219 2.304 288.563 1.664 290.259 1.664C291.091 1.664 291.827 1.824 292.467 2.144C293.107 2.432 293.683 2.784 294.195 3.2C294.739 3.616 295.235 3.984 295.683 4.304C296.131 4.592 296.563 4.736 296.979 4.736C297.651 4.736 298.195 4.512 298.611 4.064C299.027 3.584 299.251 2.944 299.283 2.144H303.075C303.043 4.192 302.515 5.856 301.491 7.136C300.499 8.384 299.155 9.008 297.459 9.008ZM324.775 38.384C322.023 38.384 319.575 37.808 317.431 36.656C315.319 35.504 313.639 33.936 312.391 31.952C311.175 29.936 310.567 27.648 310.567 25.088C310.567 22.496 311.175 20.208 312.391 18.224C313.639 16.208 315.319 14.64 317.431 13.52C319.575 12.368 322.023 11.792 324.775 11.792C327.495 11.792 329.927 12.368 332.071 13.52C334.215 14.64 335.895 16.192 337.111 18.176C338.327 20.16 338.935 22.464 338.935 25.088C338.935 27.648 338.327 29.936 337.111 31.952C335.895 33.936 334.215 35.504 332.071 36.656C329.927 37.808 327.495 38.384 324.775 38.384ZM324.775 32.24C326.023 32.24 327.143 31.952 328.135 31.376C329.127 30.8 329.911 29.984 330.487 28.928C331.063 27.84 331.351 26.56 331.351 25.088C331.351 23.584 331.063 22.304 330.487 21.248C329.911 20.192 329.127 19.376 328.135 18.8C327.143 18.224 326.023 17.936 324.775 17.936C323.527 17.936 322.407 18.224 321.415 18.8C320.423 19.376 319.623 20.192 319.015 21.248C318.439 22.304 318.151 23.584 318.151 25.088C318.151 26.56 318.439 27.84 319.015 28.928C319.623 29.984 320.423 30.8 321.415 31.376C322.407 31.952 323.527 32.24 324.775 32.24ZM15.272 97.384C12.328 97.384 9.736 96.808 7.496 95.656C5.288 94.504 3.576 92.936 2.36 90.952C1.144 88.936 0.536 86.648 0.536 84.088C0.536 81.496 1.128 79.208 2.312 77.224C3.528 75.208 5.176 73.64 7.256 72.52C9.336 71.368 11.688 70.792 14.312 70.792C16.84 70.792 19.112 71.336 21.128 72.424C23.176 73.48 24.792 75.016 25.976 77.032C27.16 79.016 27.752 81.4 27.752 84.184C27.752 84.472 27.736 84.808 27.704 85.192C27.672 85.544 27.64 85.88 27.608 86.2H6.632V81.832H23.672L20.792 83.128C20.792 81.784 20.52 80.616 19.976 79.624C19.432 78.632 18.68 77.864 17.72 77.32C16.76 76.744 15.64 76.456 14.36 76.456C13.08 76.456 11.944 76.744 10.952 77.32C9.992 77.864 9.24 78.648 8.696 79.672C8.152 80.664 7.88 81.848 7.88 83.224V84.376C7.88 85.784 8.184 87.032 8.792 88.12C9.432 89.176 10.312 89.992 11.432 90.568C12.584 91.112 13.928 91.384 15.464 91.384C16.84 91.384 18.04 91.176 19.064 90.76C20.12 90.344 21.08 89.72 21.944 88.888L25.928 93.208C24.744 94.552 23.256 95.592 21.464 96.328C19.672 97.032 17.608 97.384 15.272 97.384ZM9.8 67.864L16.28 60.952H24.344L15.656 67.864H9.8ZM15.272 156.384C12.328 156.384 9.736 155.808 7.496 154.656C5.288 153.504 3.576 151.936 2.36 149.952C1.144 147.936 0.536 145.648 0.536 143.088C0.536 140.496 1.128 138.208 2.312 136.224C3.528 134.208 5.176 132.64 7.256 131.52C9.336 130.368 11.688 129.792 14.312 129.792C16.84 129.792 19.112 130.336 21.128 131.424C23.176 132.48 24.792 134.016 25.976 136.032C27.16 138.016 27.752 140.4 27.752 143.184C27.752 143.472 27.736 143.808 27.704 144.192C27.672 144.544 27.64 144.88 27.608 145.2H6.632V140.832H23.672L20.792 142.128C20.792 140.784 20.52 139.616 19.976 138.624C19.432 137.632 18.68 136.864 17.72 136.32C16.76 135.744 15.64 135.456 14.36 135.456C13.08 135.456 11.944 135.744 10.952 136.32C9.992 136.864 9.24 137.648 8.696 138.672C8.152 139.664 7.88 140.848 7.88 142.224V143.376C7.88 144.784 8.184 146.032 8.792 147.12C9.432 148.176 10.312 148.992 11.432 149.568C12.584 150.112 13.928 150.384 15.464 150.384C16.84 150.384 18.04 150.176 19.064 149.76C20.12 149.344 21.08 148.72 21.944 147.888L25.928 152.208C24.744 153.552 23.256 154.592 21.464 155.328C19.672 156.032 17.608 156.384 15.272 156.384ZM61.595 156.384C59.419 156.384 57.515 155.904 55.883 154.944C54.251 153.984 52.971 152.528 52.043 150.576C51.147 148.592 50.699 146.096 50.699 143.088C50.699 140.048 51.131 137.552 51.995 135.6C52.859 133.648 54.107 132.192 55.739 131.232C57.371 130.272 59.323 129.792 61.595 129.792C64.027 129.792 66.203 130.352 68.123 131.472C70.075 132.56 71.611 134.096 72.731 136.08C73.883 138.064 74.459 140.4 74.459 143.088C74.459 145.808 73.883 148.16 72.731 150.144C71.611 152.128 70.075 153.664 68.123 154.752C66.203 155.84 64.027 156.384 61.595 156.384ZM46.331 165.312V130.176H53.483V135.456L53.339 143.136L53.819 150.768V165.312H46.331ZM60.299 150.24C61.547 150.24 62.651 149.952 63.611 149.376C64.603 148.8 65.387 147.984 65.963 146.928C66.571 145.84 66.875 144.56 66.875 143.088C66.875 141.584 66.571 140.304 65.963 139.248C65.387 138.192 64.603 137.376 63.611 136.8C62.651 136.224 61.547 135.936 60.299 135.936C59.051 135.936 57.931 136.224 56.939 136.8C55.947 137.376 55.163 138.192 54.587 139.248C54.011 140.304 53.723 141.584 53.723 143.088C53.723 144.56 54.011 145.84 54.587 146.928C55.163 147.984 55.947 148.8 56.939 149.376C57.931 149.952 59.051 150.24 60.299 150.24ZM79.4716 156V130.176H86.6236V137.472L85.6156 135.36C86.3836 133.536 87.6156 132.16 89.3116 131.232C91.0076 130.272 93.0716 129.792 95.5036 129.792V136.704C95.1836 136.672 94.8956 136.656 94.6396 136.656C94.3836 136.624 94.1116 136.608 93.8236 136.608C91.7756 136.608 90.1116 137.2 88.8316 138.384C87.5836 139.536 86.9596 141.344 86.9596 143.808V156H79.4716ZM112.057 156.384C109.305 156.384 106.857 155.808 104.713 154.656C102.601 153.504 100.921 151.936 99.6725 149.952C98.4565 147.936 97.8485 145.648 97.8485 143.088C97.8485 140.496 98.4565 138.208 99.6725 136.224C100.921 134.208 102.601 132.64 104.713 131.52C106.857 130.368 109.305 129.792 112.057 129.792C114.777 129.792 117.209 130.368 119.353 131.52C121.497 132.64 123.177 134.192 124.393 136.176C125.609 138.16 126.217 140.464 126.217 143.088C126.217 145.648 125.609 147.936 124.393 149.952C123.177 151.936 121.497 153.504 119.353 154.656C117.209 155.808 114.777 156.384 112.057 156.384ZM112.057 150.24C113.305 150.24 114.425 149.952 115.417 149.376C116.409 148.8 117.193 147.984 117.769 146.928C118.345 145.84 118.633 144.56 118.633 143.088C118.633 141.584 118.345 140.304 117.769 139.248C117.193 138.192 116.409 137.376 115.417 136.8C114.425 136.224 113.305 135.936 112.057 135.936C110.809 135.936 109.689 136.224 108.697 136.8C107.705 137.376 106.905 138.192 106.297 139.248C105.721 140.304 105.433 141.584 105.433 143.088C105.433 144.56 105.721 145.84 106.297 146.928C106.905 147.984 107.705 148.8 108.697 149.376C109.689 149.952 110.809 150.24 112.057 150.24ZM164.294 129.792C166.342 129.792 168.15 130.208 169.718 131.04C171.318 131.84 172.566 133.088 173.462 134.784C174.39 136.448 174.854 138.592 174.854 141.216V156H167.366V142.368C167.366 140.288 166.934 138.752 166.07 137.76C165.206 136.768 163.99 136.272 162.422 136.272C161.334 136.272 160.358 136.528 159.494 137.04C158.63 137.52 157.958 138.256 157.478 139.248C156.998 140.24 156.758 141.504 156.758 143.04V156H149.27V142.368C149.27 140.288 148.838 138.752 147.974 137.76C147.142 136.768 145.942 136.272 144.374 136.272C143.286 136.272 142.31 136.528 141.446 137.04C140.582 137.52 139.91 138.256 139.43 139.248C138.95 140.24 138.71 141.504 138.71 143.04V156H131.222V130.176H138.374V137.232L137.03 135.168C137.926 133.408 139.19 132.08 140.822 131.184C142.486 130.256 144.374 129.792 146.486 129.792C148.854 129.792 150.918 130.4 152.678 131.616C154.47 132.8 155.654 134.624 156.23 137.088L153.59 136.368C154.454 134.352 155.83 132.752 157.718 131.568C159.638 130.384 161.83 129.792 164.294 129.792ZM194.041 156.384C191.289 156.384 188.841 155.808 186.697 154.656C184.585 153.504 182.905 151.936 181.657 149.952C180.441 147.936 179.833 145.648 179.833 143.088C179.833 140.496 180.441 138.208 181.657 136.224C182.905 134.208 184.585 132.64 186.697 131.52C188.841 130.368 191.289 129.792 194.041 129.792C196.761 129.792 199.193 130.368 201.337 131.52C203.481 132.64 205.161 134.192 206.377 136.176C207.593 138.16 208.201 140.464 208.201 143.088C208.201 145.648 207.593 147.936 206.377 149.952C205.161 151.936 203.481 153.504 201.337 154.656C199.193 155.808 196.761 156.384 194.041 156.384ZM194.041 150.24C195.289 150.24 196.409 149.952 197.401 149.376C198.393 148.8 199.177 147.984 199.753 146.928C200.329 145.84 200.617 144.56 200.617 143.088C200.617 141.584 200.329 140.304 199.753 139.248C199.177 138.192 198.393 137.376 197.401 136.8C196.409 136.224 195.289 135.936 194.041 135.936C192.793 135.936 191.673 136.224 190.681 136.8C189.689 137.376 188.889 138.192 188.281 139.248C187.705 140.304 187.417 141.584 187.417 143.088C187.417 144.56 187.705 145.84 188.281 146.928C188.889 147.984 189.689 148.8 190.681 149.376C191.673 149.952 192.793 150.24 194.041 150.24ZM219.511 156L208.663 130.176H216.391L225.415 152.4H221.575L230.935 130.176H238.135L227.239 156H219.511ZM253.303 156.384C250.359 156.384 247.767 155.808 245.527 154.656C243.319 153.504 241.607 151.936 240.391 149.952C239.175 147.936 238.567 145.648 238.567 143.088C238.567 140.496 239.159 138.208 240.343 136.224C241.559 134.208 243.207 132.64 245.287 131.52C247.367 130.368 249.719 129.792 252.343 129.792C254.871 129.792 257.143 130.336 259.159 131.424C261.207 132.48 262.823 134.016 264.007 136.032C265.191 138.016 265.783 140.4 265.783 143.184C265.783 143.472 265.767 143.808 265.735 144.192C265.703 144.544 265.671 144.88 265.639 145.2H244.663V140.832H261.703L258.823 142.128C258.823 140.784 258.551 139.616 258.007 138.624C257.463 137.632 256.711 136.864 255.751 136.32C254.791 135.744 253.671 135.456 252.391 135.456C251.111 135.456 249.975 135.744 248.983 136.32C248.023 136.864 247.271 137.648 246.727 138.672C246.183 139.664 245.911 140.848 245.911 142.224V143.376C245.911 144.784 246.215 146.032 246.823 147.12C247.463 148.176 248.343 148.992 249.463 149.568C250.615 150.112 251.959 150.384 253.495 150.384C254.871 150.384 256.071 150.176 257.095 149.76C258.151 149.344 259.111 148.72 259.975 147.888L263.959 152.208C262.775 153.552 261.287 154.592 259.495 155.328C257.703 156.032 255.639 156.384 253.303 156.384ZM270.769 156V130.176H277.921V137.472L276.913 135.36C277.681 133.536 278.913 132.16 280.609 131.232C282.305 130.272 284.369 129.792 286.801 129.792V136.704C286.481 136.672 286.193 136.656 285.937 136.656C285.681 136.624 285.409 136.608 285.121 136.608C283.073 136.608 281.409 137.2 280.129 138.384C278.881 139.536 278.257 141.344 278.257 143.808V156H270.769ZM315.93 156.384C313.786 156.384 311.866 155.968 310.17 155.136C308.506 154.304 307.21 153.04 306.282 151.344C305.354 149.616 304.89 147.424 304.89 144.768V130.176H312.378V143.664C312.378 145.808 312.826 147.392 313.722 148.416C314.65 149.408 315.946 149.904 317.61 149.904C318.762 149.904 319.786 149.664 320.682 149.184C321.578 148.672 322.282 147.904 322.794 146.88C323.306 145.824 323.562 144.512 323.562 142.944V130.176H331.05V156H323.946V148.896L325.242 150.96C324.378 152.752 323.098 154.112 321.402 155.04C319.738 155.936 317.914 156.384 315.93 156.384ZM371.059 129.792C373.107 129.792 374.915 130.208 376.483 131.04C378.083 131.84 379.331 133.088 380.227 134.784C381.155 136.448 381.619 138.592 381.619 141.216V156H374.131V142.368C374.131 140.288 373.699 138.752 372.835 137.76C371.971 136.768 370.755 136.272 369.187 136.272C368.099 136.272 367.123 136.528 366.259 137.04C365.395 137.52 364.723 138.256 364.243 139.248C363.763 140.24 363.523 141.504 363.523 143.04V156H356.035V142.368C356.035 140.288 355.603 138.752 354.739 137.76C353.907 136.768 352.707 136.272 351.139 136.272C350.051 136.272 349.075 136.528 348.211 137.04C347.347 137.52 346.675 138.256 346.195 139.248C345.715 140.24 345.475 141.504 345.475 143.04V156H337.987V130.176H345.139V137.232L343.795 135.168C344.691 133.408 345.955 132.08 347.587 131.184C349.251 130.256 351.139 129.792 353.251 129.792C355.619 129.792 357.683 130.4 359.443 131.616C361.235 132.8 362.419 134.624 362.995 137.088L360.355 136.368C361.219 134.352 362.595 132.752 364.483 131.568C366.403 130.384 368.595 129.792 371.059 129.792ZM404.171 156V150.96L403.691 149.856V140.832C403.691 139.232 403.195 137.984 402.203 137.088C401.243 136.192 399.755 135.744 397.739 135.744C396.363 135.744 395.003 135.968 393.659 136.416C392.347 136.832 391.227 137.408 390.299 138.144L387.611 132.912C389.019 131.92 390.715 131.152 392.699 130.608C394.683 130.064 396.699 129.792 398.747 129.792C402.683 129.792 405.739 130.72 407.915 132.576C410.091 134.432 411.179 137.328 411.179 141.264V156H404.171ZM396.299 156.384C394.283 156.384 392.555 156.048 391.115 155.376C389.675 154.672 388.571 153.728 387.803 152.544C387.035 151.36 386.651 150.032 386.651 148.56C386.651 147.024 387.019 145.68 387.755 144.528C388.523 143.376 389.723 142.48 391.355 141.84C392.987 141.168 395.115 140.832 397.739 140.832H404.603V145.2H398.555C396.795 145.2 395.579 145.488 394.907 146.064C394.267 146.64 393.947 147.36 393.947 148.224C393.947 149.184 394.315 149.952 395.051 150.528C395.819 151.072 396.859 151.344 398.171 151.344C399.419 151.344 400.539 151.056 401.531 150.48C402.523 149.872 403.243 148.992 403.691 147.84L404.843 151.296C404.299 152.96 403.307 154.224 401.867 155.088C400.427 155.952 398.571 156.384 396.299 156.384ZM444.03 156.384C441.246 156.384 438.766 155.824 436.59 154.704C434.414 153.552 432.702 151.968 431.454 149.952C430.238 147.936 429.63 145.648 429.63 143.088C429.63 140.496 430.238 138.208 431.454 136.224C432.702 134.208 434.414 132.64 436.59 131.52C438.766 130.368 441.246 129.792 444.03 129.792C446.75 129.792 449.118 130.368 451.134 131.52C453.15 132.64 454.638 134.256 455.598 136.368L449.79 139.488C449.118 138.272 448.27 137.376 447.246 136.8C446.254 136.224 445.166 135.936 443.982 135.936C442.702 135.936 441.55 136.224 440.526 136.8C439.502 137.376 438.686 138.192 438.078 139.248C437.502 140.304 437.214 141.584 437.214 143.088C437.214 144.592 437.502 145.872 438.078 146.928C438.686 147.984 439.502 148.8 440.526 149.376C441.55 149.952 442.702 150.24 443.982 150.24C445.166 150.24 446.254 149.968 447.246 149.424C448.27 148.848 449.118 147.936 449.79 146.688L455.598 149.856C454.638 151.936 453.15 153.552 451.134 154.704C449.118 155.824 446.75 156.384 444.03 156.384ZM470.805 156.384C468.661 156.384 466.741 155.968 465.045 155.136C463.381 154.304 462.085 153.04 461.157 151.344C460.229 149.616 459.765 147.424 459.765 144.768V130.176H467.253V143.664C467.253 145.808 467.701 147.392 468.597 148.416C469.525 149.408 470.821 149.904 472.485 149.904C473.637 149.904 474.661 149.664 475.557 149.184C476.453 148.672 477.157 147.904 477.669 146.88C478.181 145.824 478.437 144.512 478.437 142.944V130.176H485.925V156H478.821V148.896L480.117 150.96C479.253 152.752 477.973 154.112 476.277 155.04C474.613 155.936 472.789 156.384 470.805 156.384ZM492.862 156V120.384H500.35V156H492.862ZM519.782 156.384C516.742 156.384 514.374 155.616 512.678 154.08C510.982 152.512 510.134 150.192 510.134 147.12V124.464H517.622V147.024C517.622 148.112 517.91 148.96 518.486 149.568C519.062 150.144 519.846 150.432 520.838 150.432C522.022 150.432 523.03 150.112 523.862 149.472L525.878 154.752C525.11 155.296 524.182 155.712 523.094 156C522.038 156.256 520.934 156.384 519.782 156.384ZM506.15 136.512V130.752H524.054V136.512H506.15ZM540.977 156.384C538.833 156.384 536.913 155.968 535.217 155.136C533.553 154.304 532.257 153.04 531.329 151.344C530.401 149.616 529.937 147.424 529.937 144.768V130.176H537.425V143.664C537.425 145.808 537.873 147.392 538.769 148.416C539.697 149.408 540.993 149.904 542.657 149.904C543.809 149.904 544.833 149.664 545.729 149.184C546.625 148.672 547.329 147.904 547.841 146.88C548.353 145.824 548.609 144.512 548.609 142.944V130.176H556.097V156H548.993V148.896L550.289 150.96C549.425 152.752 548.145 154.112 546.449 155.04C544.785 155.936 542.961 156.384 540.977 156.384ZM563.034 156V130.176H570.186V137.472L569.178 135.36C569.946 133.536 571.178 132.16 572.874 131.232C574.57 130.272 576.634 129.792 579.066 129.792V136.704C578.746 136.672 578.458 136.656 578.202 136.656C577.946 136.624 577.674 136.608 577.386 136.608C575.338 136.608 573.674 137.2 572.394 138.384C571.146 139.536 570.522 141.344 570.522 143.808V156H563.034ZM597.671 156V150.96L597.191 149.856V140.832C597.191 139.232 596.695 137.984 595.703 137.088C594.743 136.192 593.255 135.744 591.239 135.744C589.863 135.744 588.503 135.968 587.159 136.416C585.847 136.832 584.727 137.408 583.799 138.144L581.111 132.912C582.519 131.92 584.215 131.152 586.199 130.608C588.183 130.064 590.199 129.792 592.247 129.792C596.183 129.792 599.239 130.72 601.415 132.576C603.591 134.432 604.679 137.328 604.679 141.264V156H597.671ZM589.799 156.384C587.783 156.384 586.055 156.048 584.615 155.376C583.175 154.672 582.071 153.728 581.303 152.544C580.535 151.36 580.151 150.032 580.151 148.56C580.151 147.024 580.519 145.68 581.255 144.528C582.023 143.376 583.223 142.48 584.855 141.84C586.487 141.168 588.615 140.832 591.239 140.832H598.103V145.2H592.055C590.295 145.2 589.079 145.488 588.407 146.064C587.767 146.64 587.447 147.36 587.447 148.224C587.447 149.184 587.815 149.952 588.551 150.528C589.319 151.072 590.359 151.344 591.671 151.344C592.919 151.344 594.039 151.056 595.031 150.48C596.023 149.872 596.743 148.992 597.191 147.84L598.343 151.296C597.799 152.96 596.807 154.224 595.367 155.088C593.927 155.952 592.071 156.384 589.799 156.384ZM13.544 215.384C11.112 215.384 8.92 214.84 6.968 213.752C5.016 212.632 3.464 211.08 2.312 209.096C1.192 207.112 0.632 204.776 0.632 202.088C0.632 199.368 1.192 197.016 2.312 195.032C3.464 193.048 5.016 191.512 6.968 190.424C8.92 189.336 11.112 188.792 13.544 188.792C15.72 188.792 17.624 189.272 19.256 190.232C20.888 191.192 22.152 192.648 23.048 194.6C23.944 196.552 24.392 199.048 24.392 202.088C24.392 205.096 23.96 207.592 23.096 209.576C22.232 211.528 20.984 212.984 19.352 213.944C17.752 214.904 15.816 215.384 13.544 215.384ZM14.84 209.24C16.056 209.24 17.16 208.952 18.152 208.376C19.144 207.8 19.928 206.984 20.504 205.928C21.112 204.84 21.416 203.56 21.416 202.088C21.416 200.584 21.112 199.304 20.504 198.248C19.928 197.192 19.144 196.376 18.152 195.8C17.16 195.224 16.056 194.936 14.84 194.936C13.592 194.936 12.472 195.224 11.48 195.8C10.488 196.376 9.688 197.192 9.08 198.248C8.504 199.304 8.216 200.584 8.216 202.088C8.216 203.56 8.504 204.84 9.08 205.928C9.688 206.984 10.488 207.8 11.48 208.376C12.472 208.952 13.592 209.24 14.84 209.24ZM21.608 215V209.72L21.752 202.04L21.272 194.408V179.384H28.76V215H21.608ZM48.5064 215.384C45.5624 215.384 42.9704 214.808 40.7304 213.656C38.5224 212.504 36.8104 210.936 35.5944 208.952C34.3784 206.936 33.7704 204.648 33.7704 202.088C33.7704 199.496 34.3624 197.208 35.5464 195.224C36.7624 193.208 38.4104 191.64 40.4904 190.52C42.5704 189.368 44.9224 188.792 47.5464 188.792C50.0744 188.792 52.3464 189.336 54.3624 190.424C56.4104 191.48 58.0264 193.016 59.2104 195.032C60.3944 197.016 60.9864 199.4 60.9864 202.184C60.9864 202.472 60.9704 202.808 60.9384 203.192C60.9064 203.544 60.8744 203.88 60.8424 204.2H39.8664V199.832H56.9064L54.0264 201.128C54.0264 199.784 53.7544 198.616 53.2104 197.624C52.6664 196.632 51.9144 195.864 50.9544 195.32C49.9944 194.744 48.8744 194.456 47.5944 194.456C46.3144 194.456 45.1784 194.744 44.1864 195.32C43.2264 195.864 42.4744 196.648 41.9304 197.672C41.3864 198.664 41.1144 199.848 41.1144 201.224V202.376C41.1144 203.784 41.4184 205.032 42.0264 206.12C42.6664 207.176 43.5464 207.992 44.6664 208.568C45.8184 209.112 47.1624 209.384 48.6984 209.384C50.0744 209.384 51.2744 209.176 52.2984 208.76C53.3544 208.344 54.3144 207.72 55.1784 206.888L59.1624 211.208C57.9784 212.552 56.4904 213.592 54.6984 214.328C52.9064 215.032 50.8424 215.384 48.5064 215.384ZM79.5654 215V189.176H87.0534V215H79.5654ZM83.3094 185.576C81.9334 185.576 80.8134 185.176 79.9494 184.376C79.0854 183.576 78.6534 182.584 78.6534 181.4C78.6534 180.216 79.0854 179.224 79.9494 178.424C80.8134 177.624 81.9334 177.224 83.3094 177.224C84.6854 177.224 85.8054 177.608 86.6694 178.376C87.5334 179.112 87.9654 180.072 87.9654 181.256C87.9654 182.504 87.5334 183.544 86.6694 184.376C85.8374 185.176 84.7174 185.576 83.3094 185.576ZM109.699 188.792C111.747 188.792 113.571 189.208 115.171 190.04C116.803 190.84 118.083 192.088 119.011 193.784C119.939 195.448 120.403 197.592 120.403 200.216V215H112.915V201.368C112.915 199.288 112.451 197.752 111.523 196.76C110.627 195.768 109.347 195.272 107.683 195.272C106.499 195.272 105.427 195.528 104.467 196.04C103.539 196.52 102.803 197.272 102.259 198.296C101.747 199.32 101.491 200.632 101.491 202.232V215H94.0029V189.176H101.155V196.328L99.8109 194.168C100.739 192.44 102.067 191.112 103.795 190.184C105.523 189.256 107.491 188.792 109.699 188.792ZM139.858 215.384C137.074 215.384 134.594 214.824 132.418 213.704C130.242 212.552 128.53 210.968 127.282 208.952C126.066 206.936 125.458 204.648 125.458 202.088C125.458 199.496 126.066 197.208 127.282 195.224C128.53 193.208 130.242 191.64 132.418 190.52C134.594 189.368 137.074 188.792 139.858 188.792C142.578 188.792 144.946 189.368 146.962 190.52C148.978 191.64 150.466 193.256 151.426 195.368L145.618 198.488C144.946 197.272 144.098 196.376 143.074 195.8C142.082 195.224 140.994 194.936 139.81 194.936C138.53 194.936 137.378 195.224 136.354 195.8C135.33 196.376 134.514 197.192 133.906 198.248C133.33 199.304 133.042 200.584 133.042 202.088C133.042 203.592 133.33 204.872 133.906 205.928C134.514 206.984 135.33 207.8 136.354 208.376C137.378 208.952 138.53 209.24 139.81 209.24C140.994 209.24 142.082 208.968 143.074 208.424C144.098 207.848 144.946 206.936 145.618 205.688L151.426 208.856C150.466 210.936 148.978 212.552 146.962 213.704C144.946 214.824 142.578 215.384 139.858 215.384ZM155.597 215V179.384H163.085V215H155.597ZM180.93 215.384C178.786 215.384 176.866 214.968 175.17 214.136C173.506 213.304 172.21 212.04 171.282 210.344C170.354 208.616 169.89 206.424 169.89 203.768V189.176H177.378V202.664C177.378 204.808 177.826 206.392 178.722 207.416C179.65 208.408 180.946 208.904 182.61 208.904C183.762 208.904 184.786 208.664 185.682 208.184C186.578 207.672 187.282 206.904 187.794 205.88C188.306 204.824 188.562 203.512 188.562 201.944V189.176H196.05V215H188.946V207.896L190.242 209.96C189.378 211.752 188.098 213.112 186.402 214.04C184.738 214.936 182.914 215.384 180.93 215.384ZM211.675 215.384C209.467 215.384 207.339 215.128 205.291 214.616C203.275 214.072 201.675 213.4 200.491 212.6L202.987 207.224C204.171 207.96 205.563 208.568 207.163 209.048C208.795 209.496 210.395 209.72 211.963 209.72C213.691 209.72 214.907 209.512 215.611 209.096C216.347 208.68 216.715 208.104 216.715 207.368C216.715 206.76 216.427 206.312 215.851 206.024C215.307 205.704 214.571 205.464 213.643 205.304C212.715 205.144 211.691 204.984 210.571 204.824C209.483 204.664 208.379 204.456 207.259 204.2C206.139 203.912 205.115 203.496 204.187 202.952C203.259 202.408 202.507 201.672 201.931 200.744C201.387 199.816 201.115 198.616 201.115 197.144C201.115 195.512 201.579 194.072 202.507 192.824C203.467 191.576 204.843 190.6 206.635 189.896C208.427 189.16 210.571 188.792 213.067 188.792C214.827 188.792 216.619 188.984 218.443 189.368C220.267 189.752 221.787 190.312 223.003 191.048L220.507 196.376C219.259 195.64 217.995 195.144 216.715 194.888C215.467 194.6 214.251 194.456 213.067 194.456C211.403 194.456 210.187 194.68 209.419 195.128C208.651 195.576 208.267 196.152 208.267 196.856C208.267 197.496 208.539 197.976 209.083 198.296C209.659 198.616 210.411 198.872 211.339 199.064C212.267 199.256 213.275 199.432 214.363 199.592C215.483 199.72 216.603 199.928 217.723 200.216C218.843 200.504 219.851 200.92 220.747 201.464C221.675 201.976 222.427 202.696 223.003 203.624C223.579 204.52 223.867 205.704 223.867 207.176C223.867 208.776 223.387 210.2 222.427 211.448C221.467 212.664 220.075 213.624 218.251 214.328C216.459 215.032 214.267 215.384 211.675 215.384ZM244.327 215V209.96L243.847 208.856V199.832C243.847 198.232 243.351 196.984 242.359 196.088C241.399 195.192 239.911 194.744 237.895 194.744C236.519 194.744 235.159 194.968 233.815 195.416C232.503 195.832 231.383 196.408 230.455 197.144L227.767 191.912C229.175 190.92 230.871 190.152 232.855 189.608C234.839 189.064 236.855 188.792 238.903 188.792C242.839 188.792 245.895 189.72 248.071 191.576C250.247 193.432 251.335 196.328 251.335 200.264V215H244.327ZM236.455 215.384C234.439 215.384 232.711 215.048 231.271 214.376C229.831 213.672 228.727 212.728 227.959 211.544C227.191 210.36 226.807 209.032 226.807 207.56C226.807 206.024 227.175 204.68 227.911 203.528C228.679 202.376 229.879 201.48 231.511 200.84C233.143 200.168 235.271 199.832 237.895 199.832H244.759V204.2H238.711C236.951 204.2 235.735 204.488 235.063 205.064C234.423 205.64 234.103 206.36 234.103 207.224C234.103 208.184 234.471 208.952 235.207 209.528C235.975 210.072 237.015 210.344 238.327 210.344C239.575 210.344 240.695 210.056 241.687 209.48C242.679 208.872 243.399 207.992 243.847 206.84L244.999 210.296C244.455 211.96 243.463 213.224 242.023 214.088C240.583 214.952 238.727 215.384 236.455 215.384ZM243.271 186.008C242.439 186.008 241.703 185.864 241.063 185.576C240.423 185.256 239.847 184.904 239.335 184.52C238.823 184.104 238.343 183.752 237.895 183.464C237.447 183.144 236.999 182.984 236.551 182.984C235.911 182.984 235.383 183.224 234.967 183.704C234.551 184.152 234.311 184.808 234.247 185.672H230.455C230.519 183.528 231.047 181.832 232.039 180.584C233.031 179.304 234.375 178.664 236.071 178.664C236.903 178.664 237.639 178.824 238.279 179.144C238.919 179.432 239.495 179.784 240.007 180.2C240.551 180.616 241.047 180.984 241.495 181.304C241.943 181.592 242.375 181.736 242.791 181.736C243.463 181.736 244.007 181.512 244.423 181.064C244.839 180.584 245.063 179.944 245.095 179.144H248.887C248.855 181.192 248.327 182.856 247.303 184.136C246.311 185.384 244.967 186.008 243.271 186.008ZM270.588 215.384C267.836 215.384 265.388 214.808 263.244 213.656C261.132 212.504 259.452 210.936 258.204 208.952C256.988 206.936 256.38 204.648 256.38 202.088C256.38 199.496 256.988 197.208 258.204 195.224C259.452 193.208 261.132 191.64 263.244 190.52C265.388 189.368 267.836 188.792 270.588 188.792C273.308 188.792 275.74 189.368 277.884 190.52C280.028 191.64 281.708 193.192 282.924 195.176C284.14 197.16 284.748 199.464 284.748 202.088C284.748 204.648 284.14 206.936 282.924 208.952C281.708 210.936 280.028 212.504 277.884 213.656C275.74 214.808 273.308 215.384 270.588 215.384ZM270.588 209.24C271.836 209.24 272.956 208.952 273.948 208.376C274.94 207.8 275.724 206.984 276.3 205.928C276.876 204.84 277.164 203.56 277.164 202.088C277.164 200.584 276.876 199.304 276.3 198.248C275.724 197.192 274.94 196.376 273.948 195.8C272.956 195.224 271.836 194.936 270.588 194.936C269.34 194.936 268.22 195.224 267.228 195.8C266.236 196.376 265.436 197.192 264.828 198.248C264.252 199.304 263.964 200.584 263.964 202.088C263.964 203.56 264.252 204.84 264.828 205.928C265.436 206.984 266.236 207.8 267.228 208.376C268.22 208.952 269.34 209.24 270.588 209.24ZM316.163 215.384C313.219 215.384 310.627 214.808 308.387 213.656C306.179 212.504 304.467 210.936 303.251 208.952C302.035 206.936 301.427 204.648 301.427 202.088C301.427 199.496 302.019 197.208 303.203 195.224C304.419 193.208 306.067 191.64 308.147 190.52C310.227 189.368 312.579 188.792 315.203 188.792C317.731 188.792 320.003 189.336 322.019 190.424C324.067 191.48 325.683 193.016 326.867 195.032C328.051 197.016 328.643 199.4 328.643 202.184C328.643 202.472 328.627 202.808 328.595 203.192C328.563 203.544 328.531 203.88 328.499 204.2H307.523V199.832H324.563L321.683 201.128C321.683 199.784 321.411 198.616 320.867 197.624C320.323 196.632 319.571 195.864 318.611 195.32C317.651 194.744 316.531 194.456 315.251 194.456C313.971 194.456 312.835 194.744 311.843 195.32C310.883 195.864 310.131 196.648 309.587 197.672C309.043 198.664 308.771 199.848 308.771 201.224V202.376C308.771 203.784 309.075 205.032 309.683 206.12C310.323 207.176 311.203 207.992 312.323 208.568C313.475 209.112 314.819 209.384 316.355 209.384C317.731 209.384 318.931 209.176 319.955 208.76C321.011 208.344 321.971 207.72 322.835 206.888L326.819 211.208C325.635 212.552 324.147 213.592 322.355 214.328C320.563 215.032 318.499 215.384 316.163 215.384ZM360.038 215.384C357.094 215.384 354.502 214.808 352.262 213.656C350.054 212.504 348.342 210.936 347.126 208.952C345.91 206.936 345.302 204.648 345.302 202.088C345.302 199.496 345.894 197.208 347.078 195.224C348.294 193.208 349.942 191.64 352.022 190.52C354.102 189.368 356.454 188.792 359.078 188.792C361.606 188.792 363.878 189.336 365.894 190.424C367.942 191.48 369.558 193.016 370.742 195.032C371.926 197.016 372.518 199.4 372.518 202.184C372.518 202.472 372.502 202.808 372.47 203.192C372.438 203.544 372.406 203.88 372.374 204.2H351.398V199.832H368.438L365.558 201.128C365.558 199.784 365.286 198.616 364.742 197.624C364.198 196.632 363.446 195.864 362.486 195.32C361.526 194.744 360.406 194.456 359.126 194.456C357.846 194.456 356.71 194.744 355.718 195.32C354.758 195.864 354.006 196.648 353.462 197.672C352.918 198.664 352.646 199.848 352.646 201.224V202.376C352.646 203.784 352.95 205.032 353.558 206.12C354.198 207.176 355.078 207.992 356.198 208.568C357.35 209.112 358.694 209.384 360.23 209.384C361.606 209.384 362.806 209.176 363.83 208.76C364.886 208.344 365.846 207.72 366.71 206.888L370.694 211.208C369.51 212.552 368.022 213.592 366.23 214.328C364.438 215.032 362.374 215.384 360.038 215.384ZM410.575 188.792C412.623 188.792 414.431 189.208 415.999 190.04C417.599 190.84 418.847 192.088 419.743 193.784C420.671 195.448 421.135 197.592 421.135 200.216V215H413.647V201.368C413.647 199.288 413.215 197.752 412.351 196.76C411.487 195.768 410.271 195.272 408.703 195.272C407.615 195.272 406.639 195.528 405.775 196.04C404.911 196.52 404.239 197.256 403.759 198.248C403.279 199.24 403.039 200.504 403.039 202.04V215H395.551V201.368C395.551 199.288 395.119 197.752 394.255 196.76C393.423 195.768 392.223 195.272 390.655 195.272C389.567 195.272 388.591 195.528 387.727 196.04C386.863 196.52 386.191 197.256 385.711 198.248C385.231 199.24 384.991 200.504 384.991 202.04V215H377.503V189.176H384.655V196.232L383.311 194.168C384.207 192.408 385.471 191.08 387.103 190.184C388.767 189.256 390.655 188.792 392.767 188.792C395.135 188.792 397.199 189.4 398.959 190.616C400.751 191.8 401.935 193.624 402.511 196.088L399.871 195.368C400.735 193.352 402.111 191.752 403.999 190.568C405.919 189.384 408.111 188.792 410.575 188.792ZM443.111 215.384C440.935 215.384 439.031 214.904 437.399 213.944C435.767 212.984 434.487 211.528 433.559 209.576C432.663 207.592 432.215 205.096 432.215 202.088C432.215 199.048 432.647 196.552 433.511 194.6C434.375 192.648 435.623 191.192 437.255 190.232C438.887 189.272 440.839 188.792 443.111 188.792C445.543 188.792 447.719 189.352 449.639 190.472C451.591 191.56 453.127 193.096 454.247 195.08C455.399 197.064 455.975 199.4 455.975 202.088C455.975 204.808 455.399 207.16 454.247 209.144C453.127 211.128 451.591 212.664 449.639 213.752C447.719 214.84 445.543 215.384 443.111 215.384ZM427.847 224.312V189.176H434.999V194.456L434.855 202.136L435.335 209.768V224.312H427.847ZM441.815 209.24C443.063 209.24 444.167 208.952 445.127 208.376C446.119 207.8 446.903 206.984 447.479 205.928C448.087 204.84 448.391 203.56 448.391 202.088C448.391 200.584 448.087 199.304 447.479 198.248C446.903 197.192 446.119 196.376 445.127 195.8C444.167 195.224 443.063 194.936 441.815 194.936C440.567 194.936 439.447 195.224 438.455 195.8C437.463 196.376 436.679 197.192 436.103 198.248C435.527 199.304 435.239 200.584 435.239 202.088C435.239 203.56 435.527 204.84 436.103 205.928C436.679 206.984 437.463 207.8 438.455 208.376C439.447 208.952 440.567 209.24 441.815 209.24ZM476.405 215V209.96L475.925 208.856V199.832C475.925 198.232 475.429 196.984 474.437 196.088C473.477 195.192 471.989 194.744 469.973 194.744C468.597 194.744 467.237 194.968 465.893 195.416C464.581 195.832 463.461 196.408 462.533 197.144L459.845 191.912C461.253 190.92 462.949 190.152 464.933 189.608C466.917 189.064 468.933 188.792 470.981 188.792C474.917 188.792 477.973 189.72 480.149 191.576C482.325 193.432 483.413 196.328 483.413 200.264V215H476.405ZM468.533 215.384C466.517 215.384 464.789 215.048 463.349 214.376C461.909 213.672 460.805 212.728 460.037 211.544C459.269 210.36 458.885 209.032 458.885 207.56C458.885 206.024 459.253 204.68 459.989 203.528C460.757 202.376 461.957 201.48 463.589 200.84C465.221 200.168 467.349 199.832 469.973 199.832H476.837V204.2H470.789C469.029 204.2 467.813 204.488 467.141 205.064C466.501 205.64 466.181 206.36 466.181 207.224C466.181 208.184 466.549 208.952 467.285 209.528C468.053 210.072 469.093 210.344 470.405 210.344C471.653 210.344 472.773 210.056 473.765 209.48C474.757 208.872 475.477 207.992 475.925 206.84L477.077 210.296C476.533 211.96 475.541 213.224 474.101 214.088C472.661 214.952 470.805 215.384 468.533 215.384ZM500.75 215.384C497.71 215.384 495.342 214.616 493.646 213.08C491.95 211.512 491.102 209.192 491.102 206.12V183.464H498.59V206.024C498.59 207.112 498.878 207.96 499.454 208.568C500.03 209.144 500.814 209.432 501.806 209.432C502.99 209.432 503.998 209.112 504.83 208.472L506.846 213.752C506.078 214.296 505.15 214.712 504.062 215C503.006 215.256 501.902 215.384 500.75 215.384ZM487.118 195.512V189.752H505.022V195.512H487.118ZM511.05 215V189.176H518.538V215H511.05ZM514.794 185.576C513.418 185.576 512.298 185.176 511.434 184.376C510.57 183.576 510.138 182.584 510.138 181.4C510.138 180.216 510.57 179.224 511.434 178.424C512.298 177.624 513.418 177.224 514.794 177.224C516.17 177.224 517.29 177.608 518.154 178.376C519.018 179.112 519.45 180.072 519.45 181.256C519.45 182.504 519.018 183.544 518.154 184.376C517.322 185.176 516.202 185.576 514.794 185.576ZM541.327 215V209.96L540.847 208.856V199.832C540.847 198.232 540.351 196.984 539.359 196.088C538.399 195.192 536.911 194.744 534.895 194.744C533.519 194.744 532.159 194.968 530.815 195.416C529.503 195.832 528.383 196.408 527.455 197.144L524.767 191.912C526.175 190.92 527.871 190.152 529.855 189.608C531.839 189.064 533.855 188.792 535.903 188.792C539.839 188.792 542.895 189.72 545.071 191.576C547.247 193.432 548.335 196.328 548.335 200.264V215H541.327ZM533.455 215.384C531.439 215.384 529.711 215.048 528.271 214.376C526.831 213.672 525.727 212.728 524.959 211.544C524.191 210.36 523.807 209.032 523.807 207.56C523.807 206.024 524.175 204.68 524.911 203.528C525.679 202.376 526.879 201.48 528.511 200.84C530.143 200.168 532.271 199.832 534.895 199.832H541.759V204.2H535.711C533.951 204.2 532.735 204.488 532.063 205.064C531.423 205.64 531.103 206.36 531.103 207.224C531.103 208.184 531.471 208.952 532.207 209.528C532.975 210.072 534.015 210.344 535.327 210.344C536.575 210.344 537.695 210.056 538.687 209.48C539.679 208.872 540.399 207.992 540.847 206.84L541.999 210.296C541.455 211.96 540.463 213.224 539.023 214.088C537.583 214.952 535.727 215.384 533.455 215.384Z" fill="#01A7E1"/>
<path d="M79.403 70.792C81.451 70.792 83.259 71.208 84.827 72.04C86.427 72.84 87.675 74.088 88.571 75.784C89.499 77.448 89.963 79.592 89.963 82.216V97H82.475V83.368C82.475 81.288 82.043 79.752 81.179 78.76C80.315 77.768 79.099 77.272 77.531 77.272C76.443 77.272 75.467 77.528 74.603 78.04C73.739 78.52 73.067 79.256 72.587 80.248C72.107 81.24 71.867 82.504 71.867 84.04V97H64.379V83.368C64.379 81.288 63.947 79.752 63.083 78.76C62.251 77.768 61.051 77.272 59.483 77.272C58.395 77.272 57.419 77.528 56.555 78.04C55.691 78.52 55.019 79.256 54.539 80.248C54.059 81.24 53.819 82.504 53.819 84.04V97H46.331V71.176H53.483V78.232L52.139 76.168C53.035 74.408 54.299 73.08 55.931 72.184C57.595 71.256 59.483 70.792 61.595 70.792C63.963 70.792 66.027 71.4 67.787 72.616C69.579 73.8 70.763 75.624 71.339 78.088L68.699 77.368C69.563 75.352 70.939 73.752 72.827 72.568C74.747 71.384 76.939 70.792 79.403 70.792ZM107.571 97.384C105.427 97.384 103.507 96.968 101.811 96.136C100.147 95.304 98.8508 94.04 97.9228 92.344C96.9948 90.616 96.5308 88.424 96.5308 85.768V71.176H104.019V84.664C104.019 86.808 104.467 88.392 105.363 89.416C106.291 90.408 107.587 90.904 109.251 90.904C110.403 90.904 111.427 90.664 112.323 90.184C113.219 89.672 113.923 88.904 114.435 87.88C114.947 86.824 115.203 85.512 115.203 83.944V71.176H122.691V97H115.587V89.896L116.883 91.96C116.019 93.752 114.739 95.112 113.043 96.04C111.379 96.936 109.555 97.384 107.571 97.384ZM140.716 97.384C138.284 97.384 136.092 96.84 134.14 95.752C132.188 94.632 130.636 93.08 129.484 91.096C128.364 89.112 127.804 86.776 127.804 84.088C127.804 81.368 128.364 79.016 129.484 77.032C130.636 75.048 132.188 73.512 134.14 72.424C136.092 71.336 138.284 70.792 140.716 70.792C142.892 70.792 144.796 71.272 146.428 72.232C148.06 73.192 149.324 74.648 150.22 76.6C151.116 78.552 151.564 81.048 151.564 84.088C151.564 87.096 151.132 89.592 150.268 91.576C149.404 93.528 148.156 94.984 146.524 95.944C144.924 96.904 142.988 97.384 140.716 97.384ZM142.012 91.24C143.228 91.24 144.332 90.952 145.324 90.376C146.316 89.8 147.1 88.984 147.676 87.928C148.284 86.84 148.588 85.56 148.588 84.088C148.588 82.584 148.284 81.304 147.676 80.248C147.1 79.192 146.316 78.376 145.324 77.8C144.332 77.224 143.228 76.936 142.012 76.936C140.764 76.936 139.644 77.224 138.652 77.8C137.66 78.376 136.86 79.192 136.252 80.248C135.676 81.304 135.388 82.584 135.388 84.088C135.388 85.56 135.676 86.84 136.252 87.928C136.86 88.984 137.66 89.8 138.652 90.376C139.644 90.952 140.764 91.24 142.012 91.24ZM148.78 97V91.72L148.924 84.04L148.444 76.408V61.384H155.932V97H148.78ZM178.702 97V91.96L178.222 90.856V81.832C178.222 80.232 177.726 78.984 176.734 78.088C175.774 77.192 174.286 76.744 172.27 76.744C170.894 76.744 169.534 76.968 168.19 77.416C166.878 77.832 165.758 78.408 164.83 79.144L162.142 73.912C163.55 72.92 165.246 72.152 167.23 71.608C169.214 71.064 171.23 70.792 173.278 70.792C177.214 70.792 180.27 71.72 182.446 73.576C184.622 75.432 185.71 78.328 185.71 82.264V97H178.702ZM170.83 97.384C168.814 97.384 167.086 97.048 165.646 96.376C164.206 95.672 163.102 94.728 162.334 93.544C161.566 92.36 161.182 91.032 161.182 89.56C161.182 88.024 161.55 86.68 162.286 85.528C163.054 84.376 164.254 83.48 165.886 82.84C167.518 82.168 169.646 81.832 172.27 81.832H179.134V86.2H173.086C171.326 86.2 170.11 86.488 169.438 87.064C168.798 87.64 168.478 88.36 168.478 89.224C168.478 90.184 168.846 90.952 169.582 91.528C170.35 92.072 171.39 92.344 172.702 92.344C173.95 92.344 175.07 92.056 176.062 91.48C177.054 90.872 177.774 89.992 178.222 88.84L179.374 92.296C178.83 93.96 177.838 95.224 176.398 96.088C174.958 96.952 173.102 97.384 170.83 97.384ZM192.487 97V71.176H199.639V78.472L198.631 76.36C199.399 74.536 200.631 73.16 202.327 72.232C204.023 71.272 206.087 70.792 208.519 70.792V77.704C208.199 77.672 207.911 77.656 207.655 77.656C207.399 77.624 207.127 77.608 206.839 77.608C204.791 77.608 203.127 78.2 201.847 79.384C200.599 80.536 199.975 82.344 199.975 84.808V97H192.487ZM235.441 97.384C233.233 97.384 231.105 97.128 229.057 96.616C227.041 96.072 225.441 95.4 224.257 94.6L226.753 89.224C227.937 89.96 229.329 90.568 230.929 91.048C232.561 91.496 234.161 91.72 235.729 91.72C237.457 91.72 238.673 91.512 239.377 91.096C240.113 90.68 240.481 90.104 240.481 89.368C240.481 88.76 240.193 88.312 239.617 88.024C239.073 87.704 238.337 87.464 237.409 87.304C236.481 87.144 235.457 86.984 234.337 86.824C233.249 86.664 232.145 86.456 231.025 86.2C229.905 85.912 228.881 85.496 227.953 84.952C227.025 84.408 226.273 83.672 225.697 82.744C225.153 81.816 224.881 80.616 224.881 79.144C224.881 77.512 225.345 76.072 226.273 74.824C227.233 73.576 228.609 72.6 230.401 71.896C232.193 71.16 234.337 70.792 236.833 70.792C238.593 70.792 240.385 70.984 242.209 71.368C244.033 71.752 245.553 72.312 246.769 73.048L244.273 78.376C243.025 77.64 241.761 77.144 240.481 76.888C239.233 76.6 238.017 76.456 236.833 76.456C235.169 76.456 233.953 76.68 233.185 77.128C232.417 77.576 232.033 78.152 232.033 78.856C232.033 79.496 232.305 79.976 232.849 80.296C233.425 80.616 234.177 80.872 235.105 81.064C236.033 81.256 237.041 81.432 238.129 81.592C239.249 81.72 240.369 81.928 241.489 82.216C242.609 82.504 243.617 82.92 244.513 83.464C245.441 83.976 246.193 84.696 246.769 85.624C247.345 86.52 247.633 87.704 247.633 89.176C247.633 90.776 247.153 92.2 246.193 93.448C245.233 94.664 243.841 95.624 242.017 96.328C240.225 97.032 238.033 97.384 235.441 97.384ZM263.149 97.384C261.005 97.384 259.085 96.968 257.389 96.136C255.725 95.304 254.429 94.04 253.501 92.344C252.573 90.616 252.109 88.424 252.109 85.768V71.176H259.597V84.664C259.597 86.808 260.045 88.392 260.941 89.416C261.869 90.408 263.165 90.904 264.829 90.904C265.981 90.904 267.005 90.664 267.901 90.184C268.797 89.672 269.501 88.904 270.013 87.88C270.525 86.824 270.781 85.512 270.781 83.944V71.176H278.269V97H271.165V89.896L272.461 91.96C271.597 93.752 270.317 95.112 268.621 96.04C266.957 96.936 265.133 97.384 263.149 97.384ZM301.046 97V91.96L300.566 90.856V81.832C300.566 80.232 300.07 78.984 299.078 78.088C298.118 77.192 296.63 76.744 294.614 76.744C293.238 76.744 291.878 76.968 290.534 77.416C289.222 77.832 288.102 78.408 287.174 79.144L284.486 73.912C285.894 72.92 287.59 72.152 289.574 71.608C291.558 71.064 293.574 70.792 295.622 70.792C299.558 70.792 302.614 71.72 304.79 73.576C306.966 75.432 308.054 78.328 308.054 82.264V97H301.046ZM293.174 97.384C291.158 97.384 289.43 97.048 287.99 96.376C286.55 95.672 285.446 94.728 284.678 93.544C283.91 92.36 283.526 91.032 283.526 89.56C283.526 88.024 283.894 86.68 284.63 85.528C285.398 84.376 286.598 83.48 288.23 82.84C289.862 82.168 291.99 81.832 294.614 81.832H301.478V86.2H295.43C293.67 86.2 292.454 86.488 291.782 87.064C291.142 87.64 290.822 88.36 290.822 89.224C290.822 90.184 291.19 90.952 291.926 91.528C292.694 92.072 293.734 92.344 295.046 92.344C296.294 92.344 297.414 92.056 298.406 91.48C299.398 90.872 300.118 89.992 300.566 88.84L301.718 92.296C301.174 93.96 300.182 95.224 298.742 96.088C297.302 96.952 295.446 97.384 293.174 97.384ZM335.433 97L324.585 71.176H332.313L341.337 93.4H337.497L346.857 71.176H354.057L343.161 97H335.433ZM357.112 97V71.176H364.6V97H357.112ZM360.856 67.576C359.48 67.576 358.36 67.176 357.496 66.376C356.632 65.576 356.2 64.584 356.2 63.4C356.2 62.216 356.632 61.224 357.496 60.424C358.36 59.624 359.48 59.224 360.856 59.224C362.232 59.224 363.352 59.608 364.216 60.376C365.08 61.112 365.512 62.072 365.512 63.256C365.512 64.504 365.08 65.544 364.216 66.376C363.384 67.176 362.264 67.576 360.856 67.576ZM382.638 97.384C380.206 97.384 378.014 96.84 376.062 95.752C374.11 94.632 372.558 93.08 371.406 91.096C370.286 89.112 369.726 86.776 369.726 84.088C369.726 81.368 370.286 79.016 371.406 77.032C372.558 75.048 374.11 73.512 376.062 72.424C378.014 71.336 380.206 70.792 382.638 70.792C384.814 70.792 386.718 71.272 388.35 72.232C389.982 73.192 391.246 74.648 392.142 76.6C393.038 78.552 393.486 81.048 393.486 84.088C393.486 87.096 393.054 89.592 392.19 91.576C391.326 93.528 390.078 94.984 388.446 95.944C386.846 96.904 384.91 97.384 382.638 97.384ZM383.934 91.24C385.15 91.24 386.254 90.952 387.246 90.376C388.238 89.8 389.022 88.984 389.598 87.928C390.206 86.84 390.51 85.56 390.51 84.088C390.51 82.584 390.206 81.304 389.598 80.248C389.022 79.192 388.238 78.376 387.246 77.8C386.254 77.224 385.15 76.936 383.934 76.936C382.686 76.936 381.566 77.224 380.574 77.8C379.582 78.376 378.782 79.192 378.174 80.248C377.598 81.304 377.31 82.584 377.31 84.088C377.31 85.56 377.598 86.84 378.174 87.928C378.782 88.984 379.582 89.8 380.574 90.376C381.566 90.952 382.686 91.24 383.934 91.24ZM390.702 97V91.72L390.846 84.04L390.366 76.408V61.384H397.854V97H390.702ZM420.624 97V91.96L420.144 90.856V81.832C420.144 80.232 419.648 78.984 418.656 78.088C417.696 77.192 416.208 76.744 414.192 76.744C412.816 76.744 411.456 76.968 410.112 77.416C408.8 77.832 407.68 78.408 406.752 79.144L404.064 73.912C405.472 72.92 407.168 72.152 409.152 71.608C411.136 71.064 413.152 70.792 415.2 70.792C419.136 70.792 422.192 71.72 424.368 73.576C426.544 75.432 427.632 78.328 427.632 82.264V97H420.624ZM412.752 97.384C410.736 97.384 409.008 97.048 407.568 96.376C406.128 95.672 405.024 94.728 404.256 93.544C403.488 92.36 403.104 91.032 403.104 89.56C403.104 88.024 403.472 86.68 404.208 85.528C404.976 84.376 406.176 83.48 407.808 82.84C409.44 82.168 411.568 81.832 414.192 81.832H421.056V86.2H415.008C413.248 86.2 412.032 86.488 411.36 87.064C410.72 87.64 410.4 88.36 410.4 89.224C410.4 90.184 410.768 90.952 411.504 91.528C412.272 92.072 413.312 92.344 414.624 92.344C415.872 92.344 416.992 92.056 417.984 91.48C418.976 90.872 419.696 89.992 420.144 88.84L421.296 92.296C420.752 93.96 419.76 95.224 418.32 96.088C416.88 96.952 415.024 97.384 412.752 97.384Z" fill="#2B4759"/>
</svg>
