<svg width="138" height="158" viewBox="0 0 138 158" fill="none" xmlns="http://www.w3.org/2000/svg">
<path d="M1.736 34V0.399998H17.912C21.048 0.399998 23.752 0.911998 26.024 1.936C28.328 2.96 30.104 4.432 31.352 6.352C32.6 8.24 33.224 10.48 33.224 13.072C33.224 15.664 32.6 17.904 31.352 19.792C30.104 21.68 28.328 23.152 26.024 24.208C23.752 25.232 21.048 25.744 17.912 25.744H8.024L13.064 20.896V34H1.736ZM13.064 22.144L8.024 17.008H17.192C18.76 17.008 19.912 16.656 20.648 15.952C21.416 15.248 21.8 14.288 21.8 13.072C21.8 11.856 21.416 10.896 20.648 10.192C19.912 9.488 18.76 9.136 17.192 9.136H8.024L13.064 4V22.144ZM47.3071 12.88H62.2831V21.04H47.3071V12.88ZM48.0751 25.456H64.8751V34H36.9391V0.399998H64.2511V8.944H48.0751V25.456ZM30.5173 75V41.4H46.6933C49.8293 41.4 52.5333 41.912 54.8053 42.936C57.1093 43.96 58.8853 45.432 60.1333 47.352C61.3813 49.24 62.0053 51.48 62.0053 54.072C62.0053 56.664 61.3813 58.904 60.1333 60.792C58.8853 62.648 57.1093 64.072 54.8053 65.064C52.5333 66.056 49.8293 66.552 46.6933 66.552H36.8053L41.8453 61.896V75H30.5173ZM50.6293 75L42.3733 62.76H54.3733L62.7253 75H50.6293ZM41.8453 63.144L36.8053 58.008H45.9733C47.5413 58.008 48.6933 57.656 49.4293 56.952C50.1973 56.248 50.5813 55.288 50.5813 54.072C50.5813 52.856 50.1973 51.896 49.4293 51.192C48.6933 50.488 47.5413 50.136 45.9733 50.136H36.8053L41.8453 45V63.144ZM76.6509 53.88H91.6269V62.04H76.6509V53.88ZM77.4189 66.456H94.2189V75H66.2829V41.4H93.5949V49.944H77.4189V66.456ZM19.16 116.768C16.44 116.768 13.928 116.352 11.624 115.52C9.352 114.656 7.368 113.44 5.672 111.872C4.008 110.304 2.712 108.448 1.784 106.304C0.856 104.16 0.392 101.792 0.392 99.2C0.392 96.608 0.856 94.24 1.784 92.096C2.712 89.952 4.024 88.096 5.72 86.528C7.416 84.96 9.416 83.76 11.72 82.928C14.056 82.064 16.616 81.632 19.4 81.632C22.728 81.632 25.688 82.192 28.28 83.312C30.904 84.432 33.064 86.032 34.76 88.112L27.512 94.496C26.456 93.28 25.304 92.368 24.056 91.76C22.84 91.12 21.48 90.8 19.976 90.8C18.728 90.8 17.592 90.992 16.568 91.376C15.576 91.76 14.728 92.32 14.024 93.056C13.32 93.792 12.776 94.672 12.392 95.696C12.008 96.72 11.816 97.888 11.816 99.2C11.816 100.448 12.008 101.6 12.392 102.656C12.776 103.68 13.32 104.56 14.024 105.296C14.728 106.032 15.56 106.608 16.52 107.024C17.512 107.408 18.616 107.6 19.832 107.6C21.112 107.6 22.36 107.392 23.576 106.976C24.792 106.528 26.088 105.776 27.464 104.72L33.8 112.496C31.752 113.872 29.416 114.928 26.792 115.664C24.168 116.4 21.624 116.768 19.16 116.768ZM23.96 111.056V98.288H33.8V112.496L23.96 111.056ZM38.6266 116V82.4H54.8026C57.9386 82.4 60.6426 82.912 62.9146 83.936C65.2186 84.96 66.9946 86.432 68.2426 88.352C69.4906 90.24 70.1146 92.48 70.1146 95.072C70.1146 97.664 69.4906 99.904 68.2426 101.792C66.9946 103.648 65.2186 105.072 62.9146 106.064C60.6426 107.056 57.9386 107.552 54.8026 107.552H44.9146L49.9546 102.896V116H38.6266ZM58.7386 116L50.4826 103.76H62.4826L70.8346 116H58.7386ZM49.9546 104.144L44.9146 99.008H54.0826C55.6506 99.008 56.8026 98.656 57.5386 97.952C58.3066 97.248 58.6906 96.288 58.6906 95.072C58.6906 93.856 58.3066 92.896 57.5386 92.192C56.8026 91.488 55.6506 91.136 54.0826 91.136H44.9146L49.9546 86V104.144ZM74.3923 116V82.4H85.7203V116H74.3923ZM30.5173 157V123.4H39.8293L56.9173 143.848H52.5973V123.4H63.6373V157H54.3253L37.2373 136.552H41.5573V157H30.5173ZM86.7114 157.768C83.9914 157.768 81.4634 157.336 79.1274 156.472C76.8234 155.608 74.8234 154.392 73.1274 152.824C71.4314 151.224 70.1034 149.352 69.1434 147.208C68.2154 145.064 67.7514 142.728 67.7514 140.2C67.7514 137.64 68.2154 135.304 69.1434 133.192C70.1034 131.048 71.4314 129.192 73.1274 127.624C74.8234 126.024 76.8234 124.792 79.1274 123.928C81.4634 123.064 83.9914 122.632 86.7114 122.632C89.4634 122.632 91.9914 123.064 94.2954 123.928C96.5994 124.792 98.5994 126.024 100.295 127.624C101.991 129.192 103.303 131.048 104.231 133.192C105.191 135.304 105.671 137.64 105.671 140.2C105.671 142.728 105.191 145.064 104.231 147.208C103.303 149.352 101.991 151.224 100.295 152.824C98.5994 154.392 96.5994 155.608 94.2954 156.472C91.9914 157.336 89.4634 157.768 86.7114 157.768ZM86.7114 148.6C87.7674 148.6 88.7434 148.408 89.6394 148.024C90.5674 147.64 91.3674 147.096 92.0394 146.392C92.7434 145.656 93.2874 144.776 93.6714 143.752C94.0554 142.696 94.2474 141.512 94.2474 140.2C94.2474 138.888 94.0554 137.72 93.6714 136.696C93.2874 135.64 92.7434 134.76 92.0394 134.056C91.3674 133.32 90.5674 132.76 89.6394 132.376C88.7434 131.992 87.7674 131.8 86.7114 131.8C85.6554 131.8 84.6634 131.992 83.7354 132.376C82.8394 132.76 82.0394 133.32 81.3354 134.056C80.6634 134.76 80.1354 135.64 79.7514 136.696C79.3674 137.72 79.1754 138.888 79.1754 140.2C79.1754 141.512 79.3674 142.696 79.7514 143.752C80.1354 144.776 80.6634 145.656 81.3354 146.392C82.0394 147.096 82.8394 147.64 83.7354 148.024C84.6634 148.408 85.6554 148.6 86.7114 148.6ZM122.311 157.768C119.495 157.768 116.775 157.448 114.151 156.808C111.527 156.168 109.367 155.336 107.671 154.312L111.319 146.056C112.919 146.984 114.695 147.736 116.647 148.312C118.631 148.856 120.551 149.128 122.407 149.128C123.495 149.128 124.343 149.064 124.951 148.936C125.591 148.776 126.055 148.568 126.343 148.312C126.631 148.024 126.775 147.688 126.775 147.304C126.775 146.696 126.439 146.216 125.767 145.864C125.095 145.512 124.199 145.224 123.079 145C121.991 144.744 120.791 144.488 119.479 144.232C118.167 143.944 116.839 143.576 115.495 143.128C114.183 142.68 112.967 142.088 111.847 141.352C110.759 140.616 109.879 139.656 109.207 138.472C108.535 137.256 108.199 135.752 108.199 133.96C108.199 131.88 108.775 129.992 109.927 128.296C111.111 126.568 112.855 125.192 115.159 124.168C117.495 123.144 120.391 122.632 123.847 122.632C126.119 122.632 128.359 122.872 130.567 123.352C132.775 123.832 134.759 124.568 136.519 125.56L133.111 133.768C131.447 132.936 129.831 132.312 128.263 131.896C126.727 131.48 125.223 131.272 123.751 131.272C122.663 131.272 121.799 131.368 121.159 131.56C120.519 131.752 120.055 132.008 119.767 132.328C119.511 132.648 119.383 133 119.383 133.384C119.383 133.96 119.719 134.424 120.391 134.776C121.063 135.096 121.943 135.368 123.031 135.592C124.151 135.816 125.367 136.056 126.679 136.312C128.023 136.568 129.351 136.92 130.663 137.368C131.975 137.816 133.175 138.408 134.263 139.144C135.383 139.88 136.279 140.84 136.951 142.024C137.623 143.208 137.959 144.68 137.959 146.44C137.959 148.488 137.367 150.376 136.183 152.104C135.031 153.8 133.303 155.176 130.999 156.232C128.695 157.256 125.799 157.768 122.311 157.768Z" fill="#01A7E1"/>
</svg>
